<svg width="40" height="40" viewBox="0 0 40 40" fill="none" xmlns="http://www.w3.org/2000/svg">
<path d="M31.7188 30.625C28.5037 30.6313 28.5987 30.6112 28.2031 30.6415V28.6259C28.2031 24.5826 25.8616 20.9955 22.3438 19.3089V16.4844H23.5156C24.1628 16.4844 24.6875 15.9597 24.6875 15.3125V10.625C24.6875 9.97781 24.1628 9.45312 23.5156 9.45312H21.1719V3.51562C21.1719 1.57711 19.5948 0 17.6562 0C15.7177 0 14.1406 1.57711 14.1406 3.51562V9.45312H11.7969C11.1497 9.45312 10.625 9.97781 10.625 10.625V15.3125C10.625 15.9597 11.1497 16.4844 11.7969 16.4844H12.9688V19.3089C9.45117 20.9954 7.10938 24.5823 7.10938 28.6259V38.8281C7.10938 39.4753 7.63406 40 8.28125 40H27.8125C30.6126 40 32.8906 37.722 32.8906 34.9219V31.7969C32.8906 31.1497 32.3659 30.625 31.7188 30.625ZM16.4844 3.51562C16.4844 2.86945 17.0101 2.34375 17.6562 2.34375C18.3024 2.34375 18.8281 2.86945 18.8281 3.51562V9.45312H16.4844V3.51562ZM12.9688 11.7969H22.3438V14.1406H12.9688V11.7969ZM14.5633 21.1712C15.0148 20.9966 15.3125 20.5623 15.3125 20.0781V16.4844H20V20.0781C20 20.5623 20.2977 20.9966 20.7492 21.1712C22.088 21.6888 23.2343 22.5545 24.1 23.6395C19.6177 23.2491 15.9501 24.771 10.7792 24.2385C11.678 22.8738 12.9866 21.7808 14.5633 21.1712ZM9.7543 26.4729C16.0459 27.3623 20.1708 25.2383 25.4698 26.1829C26.0604 27.9995 25.7898 29.1505 25.8593 31.4274C25.5974 31.5955 25.3519 31.7866 25.1257 31.9985C24.2013 30.4302 22.4954 29.375 20.5469 29.375H16.4062C15.7591 29.375 15.2344 29.8997 15.2344 30.5469V34.6875C15.2344 35.7863 15.5697 36.8081 16.1433 37.6562H9.45312C9.54172 28.8036 9.24289 28.2762 9.7543 26.4729ZM17.5781 34.6875V31.7188H20.5469C22.1838 31.7188 23.5156 33.0505 23.5156 34.6875V35.999L22.0005 34.4838C21.5429 34.0262 20.8009 34.0262 20.3432 34.4838C19.8855 34.9415 19.8855 35.6834 20.3432 36.1411L21.8584 37.6562H20.5469C18.9099 37.6562 17.5781 36.3245 17.5781 34.6875ZM30.5469 34.9219C30.5469 36.4296 29.3202 37.6562 27.8125 37.6562H27.5166L28.1334 37.0395C28.591 36.5819 28.591 35.8399 28.1334 35.3823C27.6758 34.9246 26.9338 34.9246 26.4761 35.3823L25.8594 35.999V35.7031C25.8594 34.1954 27.086 32.9688 28.5938 32.9688H30.5469V34.9219Z" fill="#5558DB"/>
</svg>
